<svg width="258" height="187" viewBox="0 0 258 187" fill="none" xmlns="http://www.w3.org/2000/svg">
<path d="M186.144 186.852L38.6931 181.961L33.0007 181.773L31.1159 176.432L2.04638 94.0502C1.01155 91.1169 0.412112 87.8733 0.588616 84.773C0.745845 82.012 1.50175 79.3369 3.04228 76.955C4.70565 74.3849 7.12267 72.361 10.457 71.1837C12.696 70.3926 15.325 70.0211 18.3898 70.1953V70.2018L64.5703 71.24L77.9189 39.0845L79.6318 34.96L84.0334 34.108L243.382 3.29354L257.032 0.654297L252.878 13.9291L201.638 177.713C200.39 181.709 197.366 184.395 193.546 185.8C191.663 186.494 189.502 186.856 187.3 186.873C186.916 186.877 186.53 186.869 186.144 186.851V186.852V186.852ZM44.9074 165.563L168.318 169.657L144.642 105.311C131.562 105.372 100.683 105.513 96.4764 105.513H90.6857L88.6709 100.082C87.7067 97.4828 86.314 93.8238 84.4091 91.2571C83.1426 89.5492 81.5525 88.1987 79.6125 88.1708H79.5475L17.7719 86.7818H17.4789L17.2507 86.7712C17.3433 87.3174 17.508 87.9141 17.722 88.5219L44.9074 165.563V165.563ZM82.3515 71.7597C89.2563 72.6248 94.1674 76.5495 97.7433 81.3691C99.5816 83.847 100.98 86.442 102.08 88.8526C116.971 88.8182 150.31 88.6969 150.406 88.6969L156.233 88.661L158.244 94.1277L186.222 170.165C186.335 170.194 186.448 170.218 186.56 170.237L232.855 22.2596L91.5573 49.5841L82.3515 71.7597V71.7597Z" fill="#2B2A29"/>
<path d="M156.231 88.6614L186.214 169.975C186.329 170.005 186.44 170.029 186.555 170.046L238.539 4.23201L257.033 0.65506L201.807 177.611C200.542 181.651 197.485 184.371 193.62 185.791C191.714 186.494 189.526 186.858 187.301 186.875C185.175 186.893 183.007 186.597 181.016 185.974C176.506 184.561 172.551 181.549 170.789 176.762L138.648 88.7377L156.231 88.6614V88.6614Z" fill="#009846"/>
</svg>
